<?xml version="1.0" standalone="no"?>
<!DOCTYPE svg PUBLIC "-//W3C//DTD SVG 20010904//EN"
 "http://www.w3.org/TR/2001/REC-SVG-20010904/DTD/svg10.dtd">
<svg version="1.0" xmlns="http://www.w3.org/2000/svg"
 width="512.000000pt" height="512.000000pt" viewBox="0 0 512.000000 512.000000"
 preserveAspectRatio="xMidYMid meet">
<metadata>
Created by potrace 1.16, written by Peter Selinger 2001-2019
</metadata>
<g transform="translate(0.000000,512.000000) scale(0.100000,-0.100000)"
fill="#000000" stroke="none">
<path d="M1140 5111 c-63 -21 -888 -355 -932 -377 -59 -30 -123 -86 -154 -135
-57 -91 -54 28 -54 -2039 0 -2069 -3 -1948 55 -2040 29 -47 96 -105 155 -135
25 -12 245 -103 490 -201 403 -161 452 -179 515 -182 39 -2 89 1 112 7 90 24
170 114 198 222 23 84 22 4567 0 4653 -40 154 -130 229 -280 233 -44 1 -91 -2
-105 -6z m170 -199 c15 -16 33 -46 39 -68 15 -55 15 -4513 0 -4568 -16 -58
-58 -96 -106 -96 -27 0 -175 55 -483 178 -245 98 -458 186 -475 194 -39 21
-81 66 -94 101 -15 40 -15 3774 0 3814 14 38 56 81 104 106 22 11 234 98 470
193 475 191 494 196 545 146z"/>
<path d="M1083 2903 c-13 -2 -32 -16 -43 -30 -19 -24 -20 -40 -20 -310 0 -185
4 -291 11 -305 17 -31 71 -50 108 -37 58 20 61 39 61 338 0 154 -4 281 -10
296 -8 21 -68 60 -82 54 -2 -1 -13 -4 -25 -6z"/>
<path d="M1722 4760 c-29 -28 -37 -64 -21 -101 24 -60 16 -59 711 -59 591 0
636 -2 673 -19 50 -22 99 -70 128 -125 l22 -41 3 -690 c2 -635 4 -691 20 -708
27 -30 60 -39 99 -26 65 21 63 -2 63 721 0 371 -4 678 -10 712 -25 157 -134
284 -288 337 -52 18 -93 19 -717 19 -650 0 -662 0 -683 -20z"/>
<path d="M4122 3480 c-26 -24 -36 -60 -27 -92 4 -13 167 -184 363 -380 l357
-358 -1442 0 -1442 0 -28 -24 c-23 -20 -28 -32 -27 -66 1 -29 8 -49 23 -63
l22 -22 1444 -5 1445 -5 -355 -355 c-374 -373 -384 -386 -354 -441 19 -36 40
-48 84 -49 39 0 46 7 487 448 l448 447 0 45 0 45 -448 447 c-442 443 -448 448
-488 448 -27 0 -48 -7 -62 -20z"/>
<path d="M3272 2115 l-31 -26 -3 -687 c-3 -673 -3 -688 -24 -732 -24 -53 -72
-102 -123 -127 -33 -17 -86 -18 -681 -23 -355 -3 -653 -9 -663 -14 -27 -13
-49 -63 -42 -95 3 -16 16 -38 29 -50 l23 -22 669 3 669 3 72 34 c131 61 222
183 244 323 6 37 8 333 7 725 -3 654 -3 663 -24 683 -11 11 -36 23 -55 26 -28
5 -41 1 -67 -21z"/>
</g>
</svg>
